<?xml version="1.0" encoding="UTF-8"?>
<!DOCTYPE svg PUBLIC "-//W3C//DTD SVG 1.1//EN" "http://www.w3.org/Graphics/SVG/1.1/DTD/svg11.dtd">
<!-- Creator: CorelDRAW 2020 (64 Bit) -->
<svg xmlns="http://www.w3.org/2000/svg" xml:space="preserve" width="77.6478mm" height="81.6628mm" version="1.1" style="shape-rendering:geometricPrecision; text-rendering:geometricPrecision; image-rendering:optimizeQuality; fill-rule:evenodd; clip-rule:evenodd"
viewBox="0 0 2044.38 2150.09"
 xmlns:xlink="http://www.w3.org/1999/xlink"
 xmlns:xodm="http://www.corel.com/coreldraw/odm/2003">
 <defs>
  <style type="text/css">
   <![CDATA[
    .fil1 {fill:#64C8CF;fill-rule:nonzero}
    .fil0 {fill:#375670;fill-rule:nonzero}
   ]]>
  </style>
 </defs>
 <g id="Camada_x0020_1">
  <metadata id="CorelCorpID_0Corel-Layer"/>
  <g id="_1544738687664">
   <path class="fil0" d="M1239.99 326.78c-64.85,37.24 -139.92,59.3 -217.71,60.49 -38.93,0.69 -78.37,-5.32 -116.41,-17.26 -38.77,-12.43 -72.02,-30.4 -106.13,-48.21 -66.68,-37.12 -128.87,-78.85 -191.99,-115.62 -62.9,-36.73 -126.32,-70.84 -191.06,-87.59l-24.12 -5.72 -23.98 -3.26c-7.99,-1.52 -15.87,-1.35 -23.71,-1.51l-11.8 -0.31c-1.83,0 -4.13,-0.23 -5.64,-0.08l-4.04 0.65c-10.75,1.12 -21.01,4.32 -31.41,10.78 -10.39,6.01 -20.87,14.55 -30.56,25.47 -19.79,21.19 -36.73,49.61 -50.95,79.86 -14.31,30.38 -26.14,63.03 -36.17,96.51 -19.84,67.13 -34.06,137.38 -42.54,208.23 -8.74,70.76 -12.75,142.58 -9.33,212.21 4.14,69.29 13.77,139.74 34.15,204.69 19.96,64.44 48.75,127.07 91.45,168.65 9.92,11.59 22.04,18.95 33.23,28.11 12.53,6.08 24.2,14.45 37.87,17.62 12.81,5.76 27.3,6.28 41.28,9.04 7.24,0.47 14.73,-0.2 22.09,-0.08l11.14 0.02c3.75,-0.1 7.6,-1.2 11.39,-1.73 30.11,-3.14 62.18,-13.65 95.29,-26.36 33.06,-12.36 66.56,-26.91 100.17,-41.93 67.33,-29.99 135.11,-62.71 205.15,-91.11 70.06,-28.4 141.82,-54.32 215.72,-73.59 74.08,-18.23 150.17,-30.7 226.57,-30.62 38.18,0.2 76.17,3.48 113.54,9.43 37.27,6.85 73.71,16.73 108.71,29.83 -147.69,-28.32 -295.41,-2.65 -431.2,48.41 -137.27,49.65 -264.12,123.15 -396.93,193 -33.37,17.5 -67.19,34.9 -102.96,50.95 -35.65,15.69 -74.26,30.42 -118.19,37.37 -85.08,18.23 -190,-11.21 -252.63,-75.34 -17.33,-14.71 -30.25,-32.04 -44.15,-48.94 -6.42,-8.68 -11.9,-17.71 -17.83,-26.61 -5.99,-8.86 -11.65,-17.87 -16.19,-27.18l-14.61 -27.73c-4.42,-9.33 -8.19,-18.82 -12.32,-28.26 -8.66,-18.8 -14.48,-38.07 -21.25,-57.22 -24.69,-77.2 -35.8,-155.45 -40.91,-234.6 -3.26,-79.19 1.44,-156.63 11.86,-233.54 11.07,-76.73 26.71,-153 52.12,-227.79 12.77,-37.39 27.72,-74.47 46.55,-110.79 18.96,-36.2 41.35,-72.18 73.59,-104.49 15.77,-16.15 34.74,-31.23 57.07,-42.94 21.9,-11.96 48.22,-20.11 74.64,-20.72l9.88 -0.39c3.14,-0.02 5.48,0.34 8.28,0.51l16.11 1.37c10.73,0.91 21.49,1.65 31.76,4.13l31 6.36 29.75 9.02c38.93,13.2 75.73,29.85 109.63,49.37 34.41,18.99 66.66,40.05 97.55,62.22 61.97,44.05 120.12,90.33 180.08,131.67 29.78,20.19 60.55,41.15 91.66,54.97 31.72,14.1 66.01,23 101.44,27.59 35.47,4.44 72.04,3.67 108.32,-1.17 36.39,-4.56 72.61,-13.06 107.69,-25.85z"/>
   <path class="fil0" d="M1832.2 1453.12c-89.09,-40.19 -179.22,-78.21 -269.15,-116.59l-134.91 -57.55 -33.71 -14.38c-9.78,-4.22 -26.22,-11.61 -41.09,-14.38 -30.7,-6.62 -62.18,-3.01 -88.91,6.27 -53.91,19.07 -94.08,53.38 -130.02,88.74 -35.67,35.9 -66.62,74.92 -95.37,115.09 -57.21,80.53 -105.76,165.8 -150.31,252.7 53.14,-81.88 110.02,-161.45 173.74,-234.13 31.93,-36.18 65.65,-70.65 102.09,-100.46 36.2,-29.48 76.37,-55.3 116.49,-64.5 19.92,-4.63 38.91,-4.08 55.57,1.43 8.95,2.91 14.61,6.31 26.53,13.07l31.86 18.05 127.47 72.14c69.82,39.52 139.62,79.01 209.84,117.61 -2.79,9.86 -5.52,19.78 -8.39,29.58 -7.36,25.65 -15.12,51.2 -23.23,76.65 -16.22,50.89 -33.84,101.27 -53.42,150.64 -19.58,49.34 -41.09,97.75 -66.01,143.49 -24.98,45.19 -53.68,89.6 -89.15,119.61 -17.91,14.77 -36.17,24.22 -55.29,24.33 -21.01,0.69 -43.5,-6.52 -64.79,-18.3 -42.89,-24.04 -80.41,-63.1 -113.54,-104.43 -66.19,-83.96 -119.43,-179.96 -164.39,-278.89 34.98,103.15 78.09,204.28 137.83,298.04 30.62,46.27 65.21,91.7 114.55,126.35 24.65,16.85 54.4,30.78 88.08,33.33 17.05,1.55 35.94,-1.1 51.83,-6.68 16.15,-5.56 30.55,-13.47 43.62,-22.29 51.62,-36.16 86.59,-82.82 119,-129.45 31.84,-47.12 59.39,-96.08 84.86,-145.77 25.42,-49.71 48.69,-100.24 70.51,-151.29 10.92,-25.55 21.47,-51.24 31.66,-77.07 10.11,-26.1 20.53,-51.34 27.16,-79.58l0 -0.02 1.04 -3.81c7.23,-26.85 -5.85,-55.76 -32.04,-67.56z"/>
   <path class="fil1" d="M122.02 1238.82c52.77,103.55 96.89,207.44 141.11,310.34 44.45,102.62 86.91,205.14 135.8,301.5 24.63,47.9 50.46,94.66 80.29,135.32 14.77,20.19 30.8,38.81 47.51,53.52 16.48,14.63 35.29,25.4 51.24,28.99 9.37,3.79 31.6,-5.12 51.22,-19.72 19.99,-14.75 39.66,-33.64 58.37,-53.74 18.79,-20.17 37.12,-41.54 55.46,-63.22 18.05,-21.86 36.33,-44.02 55.68,-65.33 -21.27,53.25 -42.56,106.32 -71.77,157.44 -14.93,25.37 -31.13,50.63 -52.91,74.16 -10.96,11.72 -23.27,23.31 -38.99,33.11 -15.51,9.7 -35.41,18.35 -59.18,18.88 -40.85,0.73 -75.85,-12.63 -105.25,-30.72 -29.7,-17.78 -53.48,-40.15 -75.32,-62.99 -42.46,-46.61 -75.3,-97.44 -103.29,-149.66 -55.56,-104.62 -94.59,-214.12 -122.87,-325.81 -27.83,-111.68 -46.78,-225.51 -47.08,-342.06z"/>
   <path class="fil1" d="M913.11 109.41c22.53,6.5 45,12.2 67.7,16.64 22.51,4.89 45.16,8.64 67.74,11.28 45.02,5.65 90.04,7.17 132.83,1.77 21.35,-2.48 42.09,-6.95 61.65,-13.14 18.47,-5.87 40.05,-15.3 61.38,-24.02 42.64,-17.24 85.55,-35.49 130.16,-51.94 44.62,-16.68 91.15,-31.43 141.13,-41.35 25.08,-4.52 50.93,-7.82 77.62,-8.61 33.33,-0.77 64.25,7.39 90.86,18.5 53.56,22.7 95.91,57.01 131.85,95.37 35.94,38.4 65.06,81.47 88.42,126.84 47.1,90.7 70.76,190.14 77.78,288.42 7.17,98.36 -4.59,196.93 -22.63,288.97 -17.91,92.57 -40.28,183.32 -66.4,273.13 -26.04,89.68 -54.34,178.93 -90.48,265.21 27.27,-184.32 51.62,-368.34 69.61,-550.7 8.86,-91.29 11.07,-179.14 -0.85,-265.62 -11.07,-86.1 -35.39,-169.32 -74.22,-243.34 -19.78,-36.67 -42.89,-71.25 -69.94,-100.95 -27.05,-29.3 -57.92,-55.23 -89.68,-69.68 -15.91,-7.07 -30.68,-11.43 -43.86,-11.98 -19.7,-0.55 -40.1,0.92 -60.86,3.41 -41.68,4.68 -84.65,15.34 -128.43,26.54l-133.58 36.73c-22.7,5.72 -44.82,12.16 -71.55,16.77 -25.65,4.13 -51.22,4.97 -76.2,3.89 -99.79,-6.92 -191.22,-41.14 -270.06,-92.15z"/>
  </g>
 </g>
</svg>
