<?xml version="1.0" encoding="UTF-8"?>
<!DOCTYPE svg PUBLIC "-//W3C//DTD SVG 1.1//EN" "http://www.w3.org/Graphics/SVG/1.1/DTD/svg11.dtd">
<!-- Creator: CorelDRAW 2020 (64 Bit) -->
<svg xmlns="http://www.w3.org/2000/svg" xml:space="preserve" width="77.6478mm" height="81.6628mm" version="1.1" style="shape-rendering:geometricPrecision; text-rendering:geometricPrecision; image-rendering:optimizeQuality; fill-rule:evenodd; clip-rule:evenodd"
viewBox="0 0 7261.15 7636.61"
 xmlns:xlink="http://www.w3.org/1999/xlink"
 xmlns:xodm="http://www.corel.com/coreldraw/odm/2003">
 <defs>
  <style type="text/css">
   <![CDATA[
    .fil1 {fill:#64C8CF;fill-rule:nonzero}
    .fil0 {fill:#375670;fill-rule:nonzero}
   ]]>
  </style>
 </defs>
 <g id="Camada_x0020_1">
  <metadata id="CorelCorpID_0Corel-Layer"/>
  <g id="_2640274035936">
   <path class="fil0" d="M4404.16 1160.63c-230.32,132.26 -496.98,210.63 -773.25,214.84 -138.27,2.46 -278.36,-18.89 -413.45,-61.29 -137.72,-44.14 -255.8,-107.97 -376.95,-171.21 -236.82,-131.85 -457.73,-280.05 -681.9,-410.64 -223.4,-130.47 -448.65,-251.6 -678.61,-311.08l-85.68 -20.32 -85.16 -11.6c-28.36,-5.41 -56.36,-4.78 -84.22,-5.35l-41.9 -1.08c-6.5,0 -14.68,-0.8 -20.04,-0.29l-14.34 2.32c-38.19,3.97 -74.61,15.35 -111.56,38.28 -36.92,21.35 -74.11,51.67 -108.55,90.46 -70.28,75.25 -130.47,176.19 -180.97,283.66 -50.82,107.89 -92.84,223.88 -128.45,342.77 -70.47,238.42 -120.98,487.93 -151.08,739.58 -31.04,251.31 -45.3,506.4 -33.15,753.72 14.71,246.1 48.92,496.33 121.29,727 70.9,228.88 173.16,451.32 324.82,598.99 35.24,41.17 78.29,67.3 118.02,99.85 44.5,21.58 85.96,51.32 134.51,62.6 45.51,20.47 96.96,22.3 146.6,32.12 25.7,1.66 52.32,-0.71 78.46,-0.28l39.57 0.07c13.31,-0.36 26.99,-4.26 40.44,-6.15 106.95,-11.14 220.85,-48.49 338.45,-93.64 117.43,-43.91 236.39,-95.58 355.79,-148.91 239.14,-106.51 479.89,-222.73 728.65,-323.59 248.85,-100.88 503.7,-192.94 766.17,-261.38 263.1,-64.76 533.37,-109.05 804.72,-108.76 135.6,0.72 270.55,12.37 403.26,33.5 132.36,24.32 261.8,59.42 386.13,105.94 -524.55,-100.58 -1049.24,-9.42 -1531.52,171.93 -487.55,176.34 -938.08,437.41 -1409.8,685.49 -118.52,62.15 -238.64,123.94 -365.7,180.97 -126.64,55.72 -263.76,108.04 -419.77,132.71 -302.18,64.75 -674.83,-39.82 -897.27,-267.6 -61.57,-52.24 -107.46,-113.82 -156.8,-173.81 -22.79,-30.83 -42.26,-62.89 -63.33,-94.5 -21.27,-31.49 -41.37,-63.47 -57.51,-96.53l-51.89 -98.5c-15.69,-33.13 -29.09,-66.85 -43.77,-100.37 -30.75,-66.78 -51.44,-135.23 -75.47,-203.24 -87.71,-274.18 -127.15,-552.12 -145.3,-833.23 -11.59,-281.27 5.12,-556.31 42.11,-829.47 39.3,-272.52 94.87,-543.43 185.1,-809.05 45.37,-132.79 98.47,-264.49 165.34,-393.52 67.36,-128.57 146.88,-256.36 261.36,-371.14 56.01,-57.37 123.37,-110.93 202.69,-152.52 77.78,-42.48 171.27,-71.43 265.11,-73.6l35.1 -1.37c11.16,-0.07 19.47,1.23 29.39,1.8l57.23 4.86c38.13,3.24 76.34,5.84 112.82,14.68l110.12 22.58 105.66 32.04c138.26,46.89 268.96,106.03 389.36,175.34 122.21,67.44 236.77,142.26 346.47,220.99 220.1,156.44 426.64,320.84 639.59,467.66 105.78,71.71 215.04,146.16 325.54,195.23 112.67,50.07 234.45,81.69 360.28,97.98 125.99,15.77 255.86,13.03 384.74,-4.14 129.24,-16.21 257.89,-46.38 382.5,-91.81z"/>
   <path class="fil0" d="M6507.54 5161.13c-316.43,-142.76 -636.56,-277.78 -955.96,-414.11l-479.17 -204.42 -119.74 -51.09c-34.75,-14.98 -93.14,-41.23 -145.96,-51.08 -109.05,-23.53 -220.85,-10.71 -315.78,22.28 -191.48,67.73 -334.15,189.59 -461.8,315.2 -126.7,127.51 -236.62,266.08 -338.73,408.78 -203.19,286.04 -375.63,588.87 -533.88,897.55 188.73,-290.81 390.75,-573.44 617.09,-831.56 113.39,-128.5 233.16,-250.94 362.61,-356.79 128.58,-104.72 271.27,-196.4 413.76,-229.1 70.76,-16.43 138.2,-14.48 197.38,5.07 31.78,10.34 51.89,22.42 94.23,46.44l113.16 64.12 452.75 256.23c247.99,140.38 495.9,280.62 745.32,417.74 -9.91,35.02 -19.61,70.26 -29.8,105.06 -26.14,91.11 -53.71,181.84 -82.5,272.23 -57.6,180.75 -120.18,359.69 -189.74,535.03 -69.53,175.25 -145.94,347.18 -234.44,509.63 -88.72,160.5 -190.66,318.24 -316.64,424.83 -63.61,52.44 -128.45,86.02 -196.38,86.4 -74.62,2.46 -154.49,-23.16 -230.12,-64.98 -152.32,-85.4 -285.61,-224.12 -403.26,-370.91 -235.1,-298.2 -424.18,-639.16 -583.88,-990.55 124.23,366.36 277.35,725.56 489.53,1058.56 108.76,164.32 231.62,325.69 406.87,448.77 87.57,59.84 193.22,109.33 312.82,118.38 60.57,5.49 127.65,-3.9 184.09,-23.73 57.37,-19.75 108.52,-47.83 154.92,-79.16 183.35,-128.44 307.53,-294.16 422.65,-459.78 113.1,-167.36 210.94,-341.25 301.4,-517.74 90.29,-176.56 172.94,-356.02 250.42,-537.34 38.79,-90.75 76.26,-182 112.45,-273.74 35.89,-92.7 72.93,-182.35 96.46,-282.64l0 -0.07 3.69 -13.52c25.68,-95.37 -20.78,-198.06 -113.82,-239.97z"/>
   <path class="fil1" d="M433.38 4399.98c187.41,367.8 344.14,736.78 501.18,1102.26 157.88,364.49 308.68,728.61 482.34,1070.87 87.48,170.13 179.24,336.19 285.18,480.61 52.46,71.73 109.4,137.86 168.75,190.1 58.54,51.96 125.33,90.23 181.98,102.97 33.29,13.46 112.24,-18.17 181.92,-70.04 70.99,-52.39 140.87,-119.46 207.31,-190.88 66.72,-71.65 131.85,-147.55 196.97,-224.55 64.1,-77.64 129.02,-156.36 197.75,-232.05 -75.55,189.14 -151.17,377.64 -254.92,559.19 -53.04,90.09 -110.58,179.83 -187.93,263.39 -38.93,41.61 -82.65,82.79 -138.49,117.59 -55.08,34.44 -125.76,65.19 -210.2,67.07 -145.11,2.61 -269.4,-44.86 -373.83,-109.12 -105.48,-63.15 -189.94,-142.62 -267.51,-223.74 -150.8,-165.55 -267.45,-346.09 -366.87,-531.55 -197.32,-371.57 -335.96,-760.51 -436.4,-1157.19 -98.84,-396.67 -166.15,-800.96 -167.23,-1214.92z"/>
   <path class="fil1" d="M3243.14 388.62c80.04,23.07 159.84,43.33 240.46,59.11 79.95,17.37 160.41,30.68 240.6,40.08 159.9,20.06 319.81,25.47 471.79,6.29 75.83,-8.82 149.48,-24.67 218.95,-46.66 65.62,-20.83 142.25,-54.33 218.02,-85.3 151.46,-61.22 303.85,-126.07 462.31,-184.47 158.47,-59.25 323.74,-111.64 501.24,-146.88 89.08,-16.06 180.89,-27.79 275.7,-30.6 118.37,-2.75 228.21,26.25 322.73,65.69 190.23,80.61 340.65,202.48 468.3,338.74 127.65,136.38 231.06,289.35 314.06,450.49 167.29,322.16 251.31,675.34 276.27,1024.41 25.47,349.36 -16.29,699.45 -80.38,1026.36 -63.61,328.79 -143.07,651.1 -235.82,970.08 -92.49,318.53 -192.99,635.53 -321.35,941.98 96.87,-654.65 183.35,-1308.27 247.24,-1955.97 31.49,-324.25 39.3,-636.27 -3.03,-943.43 -39.3,-305.81 -125.7,-601.4 -263.62,-864.27 -70.26,-130.25 -152.32,-253.06 -248.42,-358.54 -96.08,-104.06 -205.71,-196.17 -318.53,-247.48 -56.51,-25.11 -108.97,-40.59 -155.78,-42.56 -69.99,-1.95 -142.41,3.25 -216.15,12.1 -148.03,16.64 -300.66,54.47 -456.16,94.27l-474.45 130.47c-80.61,20.33 -159.19,43.19 -254.13,59.55 -91.09,14.68 -181.92,17.66 -270.64,13.82 -354.42,-24.59 -679.17,-146.11 -959.2,-327.28z"/>
  </g>
 </g>
</svg>
